<svg xmlns="http://www.w3.org/2000/svg" width="24" height="24" fill="none" viewBox="0 0 16 16"><path fill="#08ACF2" d="M0 4a4 4 0 0 1 4-4h8a4 4 0 0 1 4 4v8a4 4 0 0 1-4 4H4a4 4 0 0 1-4-4z"/><g fill-rule="evenodd" clip-rule="evenodd"><path fill="#181C25" d="M8 14A5 5 0 1 0 8 4a5 5 0 0 0 0 10m0-4a1 1 0 1 0 0-2 1 1 0 0 0 0 2" opacity=".5"/><path fill="url(&quot;#a&quot;)" d="M8 13A5 5 0 1 0 8 3a5 5 0 0 0 0 10m0-4a1 1 0 1 0 0-2 1 1 0 0 0 0 2"/><path fill="#5200FF" fill-opacity=".1" d="M8 13A5 5 0 1 0 8 3a5 5 0 0 0 0 10m0-4a1 1 0 1 0 0-2 1 1 0 0 0 0 2"/></g><circle cx="8" cy="8" r="1.5" stroke="#FFF" opacity=".6"/><circle cx="8" cy="8" r="4.925" stroke="#FFF" stroke-width=".15" opacity=".6"/><defs><radialGradient id="a" cx="0" cy="0" r="1" gradientTransform="matrix(0 5 -5 0 8 8)" gradientUnits="userSpaceOnUse"><stop offset=".118" stop-color="#3A3B57"/><stop offset=".201" stop-color="#FFC9FD"/><stop offset=".274" stop-color="#212353"/><stop offset=".483" stop-color="#262861"/><stop offset=".545" stop-color="#FF64F9"/><stop offset=".618" stop-color="#232665"/><stop offset=".8" stop-color="#2B2E77"/><stop offset=".873" stop-color="#FFC3FD"/><stop offset=".915" stop-color="#33357B"/></radialGradient></defs></svg>